<svg width="23" height="16" viewBox="0 0 23 16" fill="none" xmlns="http://www.w3.org/2000/svg">
<path d="M15.9475 0.488461C15.7959 0.335645 15.6146 0.213753 15.4142 0.129899C15.2137 0.0460446 14.9982 0.00190652 14.78 6.04113e-05C14.5619 -0.00178569 14.3456 0.0386967 14.1436 0.119146C13.9417 0.199596 13.7583 0.318401 13.6041 0.468629C13.4498 0.618857 13.3278 0.7975 13.2452 0.994135C13.1626 1.19077 13.121 1.40146 13.1229 1.6139C13.1248 1.82635 13.1701 2.0363 13.2562 2.23151C13.3424 2.42671 13.4675 2.60327 13.6244 2.75086L17.3916 6.41966H1.64288C1.20716 6.41966 0.78929 6.58823 0.481189 6.88829C0.173089 7.18835 0 7.59531 0 8.01966C0 8.44401 0.173089 8.85097 0.481189 9.15103C0.78929 9.45109 1.20716 9.61966 1.64288 9.61966H17.3916L13.6244 13.2885C13.3252 13.5902 13.1596 13.9944 13.1633 14.4139C13.1671 14.8334 13.3398 15.2347 13.6444 15.5314C13.949 15.828 14.3611 15.9963 14.7919 15.9999C15.2226 16.0036 15.6376 15.8423 15.9475 15.5509L22.519 9.15086C22.827 8.85082 23 8.44392 23 8.01966C23 7.5954 22.827 7.18851 22.519 6.88846L15.9475 0.488461Z" fill="white"/>
</svg>
