<svg width="39" height="39" viewBox="0 0 39 39" fill="none" xmlns="http://www.w3.org/2000/svg">
<rect x="1.5" y="1.5" width="36" height="36" rx="8.5" stroke="#272848" stroke-width="3"/>
<path d="M21.707 15.3053C21.6148 15.2098 21.5044 15.1336 21.3824 15.0812C21.2604 15.0288 21.1292 15.0012 20.9964 15C20.8636 14.9989 20.7319 15.0242 20.609 15.0745C20.4861 15.1247 20.3745 15.199 20.2806 15.2929C20.1867 15.3868 20.1125 15.4984 20.0622 15.6213C20.0119 15.7442 19.9866 15.8759 19.9877 16.0087C19.9889 16.1415 20.0165 16.2727 20.0689 16.3947C20.1213 16.5167 20.1975 16.627 20.293 16.7193L22.586 19.0123H13C12.7348 19.0123 12.4804 19.1176 12.2929 19.3052C12.1054 19.4927 12 19.7471 12 20.0123C12 20.2775 12.1054 20.5319 12.2929 20.7194C12.4804 20.9069 12.7348 21.0123 13 21.0123H22.586L20.293 23.3053C20.1108 23.4939 20.01 23.7465 20.0123 24.0087C20.0146 24.2709 20.1198 24.5217 20.3052 24.7071C20.4906 24.8925 20.7414 24.9977 21.0036 25C21.2658 25.0022 21.5184 24.9014 21.707 24.7193L25.707 20.7193C25.8945 20.5318 25.9998 20.2775 25.9998 20.0123C25.9998 19.7471 25.8945 19.4928 25.707 19.3053L21.707 15.3053Z" fill="#272848"/>
</svg>
