<svg width="27" height="27" viewBox="0 0 27 27" fill="none" xmlns="http://www.w3.org/2000/svg">
<path d="M1 9.33333V23.2222C1 23.9589 1.32924 24.6655 1.91529 25.1864C2.50134 25.7073 3.2962 26 4.125 26H22.875C23.7038 26 24.4987 25.7073 25.0847 25.1864C25.6708 24.6655 26 23.9589 26 23.2222V9.33333M1 9.33333V6.55556C1 5.81884 1.32924 5.1123 1.91529 4.59137C2.50134 4.07044 3.2962 3.77778 4.125 3.77778H7.25M1 9.33333H26M26 9.33333V6.55556C26 5.81884 25.6708 5.1123 25.0847 4.59137C24.4987 4.07044 23.7038 3.77778 22.875 3.77778H19.75M7.25 3.77778H19.75M7.25 3.77778V1M19.75 3.77778V1" stroke="white" stroke-width="2" stroke-linecap="round" stroke-linejoin="round"/>
</svg>
