<svg width="12" height="12" viewBox="0 0 12 12" fill="none" xmlns="http://www.w3.org/2000/svg">
<path d="M0 1.75C0 0.784 0.784 0 1.75 0H7.25C8.217 0 9 0.784 9 1.75V2H9.382C9.66072 2.00001 9.93392 2.07767 10.171 2.22428C10.408 2.37088 10.5995 2.58063 10.724 2.83L11.842 5.065C11.946 5.27337 12.0001 5.5031 12 5.736V9C12 9.39782 11.842 9.77936 11.5607 10.0607C11.2794 10.342 10.8978 10.5 10.5 10.5H9.937C9.8265 10.9298 9.57622 11.3106 9.22555 11.5825C8.87488 11.8544 8.44374 12.002 8 12.002C7.55626 12.002 7.12512 11.8544 6.77445 11.5825C6.42378 11.3106 6.1735 10.9298 6.063 10.5H4.937C4.82296 10.9427 4.56068 11.333 4.19384 11.6059C3.82701 11.8787 3.37776 12.0177 2.92093 11.9996C2.46411 11.9814 2.02728 11.8073 1.68321 11.5063C1.33914 11.2052 1.10861 10.7954 1.03 10.345C0.723043 10.2064 0.462587 9.98225 0.279887 9.69933C0.0971876 9.41641 4.52459e-06 9.08678 0 8.75V1.75ZM6.063 9.5C6.17387 9.0706 6.42431 8.69024 6.77495 8.41871C7.12558 8.14718 7.55652 7.99989 8 8V1.75C8 1.55109 7.92098 1.36032 7.78033 1.21967C7.63968 1.07902 7.44891 1 7.25 1H1.75C1.55109 1 1.36032 1.07902 1.21967 1.21967C1.07902 1.36032 1 1.55109 1 1.75V8.75C1 8.925 1.06 9.086 1.16 9.214C1.3238 8.82953 1.60393 8.50603 1.96103 8.28893C2.31813 8.07184 2.73426 7.97206 3.15098 8.00362C3.5677 8.03517 3.96406 8.19647 4.2844 8.46486C4.60474 8.73325 4.83296 9.09525 4.937 9.5H6.063ZM9 8.268C9.2302 8.4008 9.43163 8.57815 9.59251 8.78968C9.7534 9.00121 9.87051 9.24269 9.937 9.5H10.5C10.6326 9.5 10.7598 9.44732 10.8536 9.35355C10.9473 9.25979 11 9.13261 11 9V6H9V8.268ZM9 5H10.691L9.829 3.276C9.78744 3.19305 9.72361 3.12331 9.64467 3.07456C9.56573 3.02582 9.47478 3 9.382 3H9V5ZM3 9C2.73478 9 2.48043 9.10536 2.29289 9.29289C2.10536 9.48043 2 9.73478 2 10C2 10.2652 2.10536 10.5196 2.29289 10.7071C2.48043 10.8946 2.73478 11 3 11C3.26522 11 3.51957 10.8946 3.70711 10.7071C3.89464 10.5196 4 10.2652 4 10C4 9.73478 3.89464 9.48043 3.70711 9.29289C3.51957 9.10536 3.26522 9 3 9ZM7 10C7 10.2652 7.10536 10.5196 7.29289 10.7071C7.48043 10.8946 7.73478 11 8 11C8.26522 11 8.51957 10.8946 8.70711 10.7071C8.89464 10.5196 9 10.2652 9 10C9 9.73478 8.89464 9.48043 8.70711 9.29289C8.51957 9.10536 8.26522 9 8 9C7.73478 9 7.48043 9.10536 7.29289 9.29289C7.10536 9.48043 7 9.73478 7 10Z" fill="#272848"/>
</svg>
