<svg width="20" height="19" viewBox="0 0 20 19" fill="none" xmlns="http://www.w3.org/2000/svg">
<path d="M18.4867 9.28027H14.1105C13.8505 9.28001 13.5971 9.36233 13.3868 9.51536C13.1766 9.6684 13.0204 9.88424 12.9408 10.1318C12.7318 10.7848 12.3206 11.3544 11.7664 11.7581C11.2123 12.1618 10.5441 12.3788 9.8585 12.3775C9.1729 12.3788 8.50468 12.1618 7.95057 11.7581C7.39645 11.3544 6.98517 10.7848 6.77625 10.1318C6.69623 9.88437 6.53987 9.66868 6.32961 9.51569C6.11936 9.36271 5.86603 9.28029 5.606 9.28027H1.22975C0.90362 9.28034 0.590867 9.40992 0.360259 9.64053C0.12965 9.87114 6.62798e-05 10.1839 0 10.51V17.5235C0.0001988 17.8496 0.129841 18.1622 0.360435 18.3927C0.591029 18.6232 0.903707 18.7527 1.22975 18.7528H18.4867C18.8128 18.7527 19.1255 18.6232 19.3561 18.3927C19.5867 18.1622 19.7163 17.8496 19.7165 17.5235V10.51C19.7165 9.83027 19.1665 9.28027 18.4867 9.28027Z" fill="#272848"/>
<path d="M9.60023 9.9355C9.66198 10.022 9.76298 10.0738 9.86923 10.0738H9.86998C9.97698 10.0738 10.0765 10.022 10.139 9.93425L13.54 5.151C13.575 5.10139 13.5957 5.04315 13.5999 4.9826C13.6041 4.92205 13.5917 4.86149 13.564 4.8075C13.5362 4.75346 13.494 4.70815 13.4421 4.67657C13.3901 4.64498 13.3305 4.62835 13.2697 4.6285H11.67V0.3315C11.67 0.14775 11.5217 0 11.3392 0H8.37773C8.19473 0 8.04698 0.14775 8.04698 0.3315V4.6285H6.44598C6.3853 4.62859 6.32582 4.64537 6.27404 4.677C6.22226 4.70864 6.18018 4.75391 6.15241 4.80785C6.12463 4.8618 6.11223 4.92235 6.11657 4.98287C6.1209 5.0434 6.1418 5.10156 6.17698 5.151L9.60023 9.9355Z" fill="#272848"/>
</svg>
