<svg width="28" height="28" viewBox="0 0 28 28" fill="none" xmlns="http://www.w3.org/2000/svg">
<path fill-rule="evenodd" clip-rule="evenodd" d="M0 6.7998C0 4.99638 0.716406 3.26683 1.99162 1.99162C3.26683 0.716406 4.99638 0 6.7998 0H14C14.3713 0 14.7274 0.1475 14.9899 0.41005C15.2525 0.672601 15.4 1.0287 15.4 1.4C15.4 1.7713 15.2525 2.1274 14.9899 2.38995C14.7274 2.6525 14.3713 2.8 14 2.8H6.7998C5.73899 2.8 4.72162 3.22141 3.97151 3.97151C3.22141 4.72162 2.8 5.73899 2.8 6.7998V21.2002C2.8 22.261 3.22141 23.2784 3.97151 24.0285C4.72162 24.7786 5.73899 25.2 6.7998 25.2H21.2002C22.261 25.2 23.2784 24.7786 24.0285 24.0285C24.7786 23.2784 25.2 22.261 25.2 21.2002V14C25.2 13.6287 25.3475 13.2726 25.61 13.0101C25.8726 12.7475 26.2287 12.6 26.6 12.6C26.9713 12.6 27.3274 12.7475 27.59 13.0101C27.8525 13.2726 28 13.6287 28 14V21.2002C28 23.0036 27.2836 24.7332 26.0084 26.0084C24.7332 27.2836 23.0036 28 21.2002 28H6.7998C4.99638 28 3.26683 27.2836 1.99162 26.0084C0.716406 24.7332 0 23.0036 0 21.2002V6.7998Z" fill="#272848"/>
<path fill-rule="evenodd" clip-rule="evenodd" d="M18.3919 15.7064L15.3049 17.5684L13.8587 15.1702L16.9457 13.3082L16.9499 13.3054C17.0682 13.2341 17.1773 13.1486 17.2747 13.0506L24.2887 6.0002C24.359 5.92937 24.4267 5.85606 24.4917 5.7804C24.9551 5.24 25.6411 4.1704 24.8109 3.336C24.1095 2.6304 23.1043 3.2968 22.4533 3.8694C22.2787 4.02335 22.1105 4.18449 21.9493 4.3524L21.9017 4.4L14.9857 11.351C14.8215 11.5142 14.6928 11.7097 14.6077 11.925L13.4541 14.8272C13.4322 14.8818 13.4281 14.9419 13.4423 14.999C13.4566 15.0561 13.4884 15.1073 13.5333 15.1452C13.5783 15.1832 13.634 15.206 13.6927 15.2105C13.7513 15.215 13.8085 15.2009 13.8587 15.1702L15.3049 17.5684C12.7779 19.0916 9.76091 16.5324 10.8529 13.7912L12.0079 10.8904C12.2328 10.3235 12.571 9.80856 13.0019 9.377L19.9165 2.4246L19.9571 2.384C20.1629 2.174 20.8545 1.4656 21.6931 0.956001C22.1509 0.680201 22.8817 0.314801 23.7847 0.244801C24.8207 0.162201 25.9267 0.488401 26.7947 1.3606C27.4591 2.01691 27.8769 2.88218 27.9777 3.8106C28.0471 4.53425 27.9365 5.26383 27.6557 5.9344C27.2497 6.9382 26.5721 7.676 26.2739 7.9742L19.2599 15.0246C18.9986 15.2869 18.7092 15.5141 18.3919 15.7064ZM24.6261 5.73C24.6261 5.73 24.6205 5.7342 24.6079 5.7384L24.6261 5.73Z" fill="#272848"/>
</svg>
