<svg width="12" height="10" viewBox="0 0 12 10" fill="none" xmlns="http://www.w3.org/2000/svg">
<path d="M10.72 3L10.085 0.725C10.0245 0.516444 9.89808 0.333094 9.72466 0.202399C9.55124 0.0717032 9.34015 0.000693318 9.123 0H2.877C2.65993 0.000801147 2.44896 0.0718605 2.27564 0.202548C2.10232 0.333236 1.97598 0.516526 1.9155 0.725L1.2655 3H0V4H1V7.5C1.0004 7.76509 1.10588 8.01922 1.29333 8.20667C1.48078 8.39412 1.73491 8.4996 2 8.5V10H3V8.5H9V10H10V8.5C10.2651 8.4996 10.5192 8.39412 10.7067 8.20667C10.8941 8.01922 10.9996 7.76509 11 7.5V4H12V3H10.72ZM2.8775 1H9.1235L9.8375 3.5H2.163L2.8775 1ZM10 6.5V7.5H2V6.5H3V5.5H2V4.5H10V5.5H9V6.5H10Z" fill="white"/>
</svg>
