<svg width="39" height="39" viewBox="0 0 39 39" fill="none" xmlns="http://www.w3.org/2000/svg">
<path d="M15.6111 10.75V6.375C15.6111 5.21468 16.0208 4.10188 16.7501 3.28141C17.4794 2.46094 18.4686 2 19.5 2H33.1111C34.1425 2 35.1316 2.46094 35.8609 3.28141C36.5903 4.10188 37 5.21468 37 6.375V32.625C37 33.7853 36.5903 34.8981 35.8609 35.7186C35.1316 36.5391 34.1425 37 33.1111 37H19.5C18.4686 37 17.4794 36.5391 16.7501 35.7186C16.0208 34.8981 15.6111 33.7853 15.6111 32.625V28.25" stroke="#272848" stroke-width="4" stroke-linecap="round" stroke-linejoin="round"/>
<path d="M25.3333 19.5H2M2 19.5L7.83333 12.9375M2 19.5L7.83333 26.0625" stroke="#272848" stroke-width="4" stroke-linecap="round" stroke-linejoin="round"/>
</svg>
