<svg width="34" height="34" viewBox="0 0 34 34" fill="none" xmlns="http://www.w3.org/2000/svg">
<path d="M16.8034 18.16C15.1234 17.6267 13.9101 16.9667 13.1634 16.18C12.4168 15.38 12.0434 14.4067 12.0434 13.26C12.0434 12.0067 12.4768 11.02 13.3434 10.3C14.2234 9.56667 15.4768 9.2 17.1034 9.2C18.3301 9.2 19.4434 9.34 20.4434 9.62C20.7634 9.71333 21.0168 9.90667 21.2034 10.2C21.4034 10.48 21.5034 10.7933 21.5034 11.14V11.72C21.5034 11.9867 21.3901 12.1933 21.1634 12.34C20.9368 12.4867 20.6968 12.5133 20.4434 12.42C19.3101 12.02 18.2634 11.82 17.3034 11.82C16.0768 11.82 15.4634 12.3 15.4634 13.26C15.4634 14.0733 15.9968 14.6533 17.0634 15C18.9034 15.56 20.1768 16.2133 20.8834 16.96C21.6034 17.7067 21.9634 18.6867 21.9634 19.9C21.9634 22.7667 20.1568 24.2 16.5434 24.2C15.3968 24.2 14.3568 24.02 13.4234 23.66C13.1034 23.54 12.8501 23.3333 12.6634 23.04C12.4901 22.7333 12.4034 22.4 12.4034 22.04V21.4C12.4034 21.16 12.5101 20.98 12.7234 20.86C12.9368 20.7267 13.1501 20.7133 13.3634 20.82C14.3368 21.3 15.3301 21.54 16.3434 21.54C17.0501 21.54 17.5834 21.4067 17.9434 21.14C18.3168 20.86 18.5034 20.4667 18.5034 19.96C18.5034 19.52 18.3768 19.16 18.1234 18.88C17.8701 18.6 17.4301 18.36 16.8034 18.16Z" fill="white"/>
<path d="M18.5 8C18.5 7.17157 17.8284 6.5 17 6.5C16.1716 6.5 15.5 7.17157 15.5 8L18.5 8ZM15.5 8L15.5 11L18.5 11L18.5 8L15.5 8Z" fill="white"/>
<path d="M17 23L17 26" stroke="white" stroke-width="3" stroke-linecap="round"/>
<path fill-rule="evenodd" clip-rule="evenodd" d="M5 3H29C30.1046 3 31 3.89543 31 5V18.5C31 19.3284 31.6716 20 32.5 20C33.3284 20 34 19.3284 34 18.5V5C34 2.23858 31.7614 0 29 0H5C2.23858 0 0 2.23858 0 5V29C0 31.7614 2.23858 34 5 34H17.5C18.3284 34 19 33.3284 19 32.5C19 31.6716 18.3284 31 17.5 31H5C3.89543 31 3 30.1046 3 29V5C3 3.89543 3.89543 3 5 3Z" fill="white"/>
<path d="M29.6353 24.3071L33.6859 28.2592C33.887 28.4557 34 28.722 34 28.9997C34 29.2774 33.887 29.5437 33.6859 29.7402L29.636 33.693C29.4345 33.8896 29.1613 34 28.8763 34C28.5914 34 28.3181 33.8896 28.1166 33.693C27.9151 33.4964 27.8019 33.2298 27.8019 32.9517C27.8019 32.6737 27.9151 32.4071 28.1166 32.2105L30.3334 30.0476H22.074C21.7892 30.0476 21.516 29.9372 21.3146 29.7407C21.1132 29.5442 21 29.2776 21 28.9997C21 28.7218 21.1132 28.4552 21.3146 28.2587C21.516 28.0622 21.7892 27.9518 22.074 27.9518H30.3334L28.1173 25.7889C27.9159 25.5923 27.8028 25.3257 27.8029 25.0478C27.803 24.7698 27.9162 24.5033 28.1177 24.3068C28.3192 24.1103 28.5924 23.9999 28.8773 24C29.1622 24.0001 29.4354 24.1105 29.6367 24.3071H29.6353Z" fill="white"/>
</svg>
