<svg width="42" height="42" viewBox="0 0 42 42" fill="none" xmlns="http://www.w3.org/2000/svg">
<path fill-rule="evenodd" clip-rule="evenodd" d="M13.384 0C20.7758 0 26.768 5.99228 26.768 13.384C26.768 14.7361 26.5675 16.0414 26.1946 17.2718L40.1521 31.2294C42.616 33.6933 42.616 37.6881 40.1521 40.1521C37.6881 42.616 33.6932 42.616 31.2294 40.1521L17.2718 26.1946C16.0414 26.5675 14.7361 26.768 13.384 26.768C5.99228 26.768 0 20.7758 0 13.384C0 11.9576 0.223137 10.5832 0.636473 9.29405L6.96753 15.6147L13.2428 13.5248L13.523 13.2445L15.6147 6.97517L9.27628 0.642329C10.5706 0.225333 11.951 0 13.384 0Z" fill="#272848"/>
</svg>
