<svg width="39" height="39" viewBox="0 0 39 39" fill="none" xmlns="http://www.w3.org/2000/svg">
<path d="M37 33.1623V20.2426C37 19.2015 36.7854 18.1713 36.3692 17.2147C35.953 16.258 35.344 15.3949 34.5792 14.6779L22.1794 3.05538C21.4567 2.3778 20.4979 2 19.501 2C18.5041 2 17.5452 2.3778 16.8225 3.05538L4.42083 14.6779C3.65599 15.3949 3.04696 16.258 2.63079 17.2147C2.21461 18.1713 2 19.2015 2 20.2426V33.1623C2 34.1801 2.40972 35.1562 3.13903 35.876C3.86834 36.5957 4.85749 37 5.88889 37H33.1111C34.1425 37 35.1317 36.5957 35.861 35.876C36.5903 35.1562 37 34.1801 37 33.1623Z" stroke="white" stroke-width="4" stroke-linecap="round" stroke-linejoin="round"/>
</svg>
