<svg width="266" height="258" viewBox="0 0 266 258" fill="none" xmlns="http://www.w3.org/2000/svg">
<rect width="258" height="258" rx="20" fill="#272848"/>
<circle cx="124.5" cy="132.5" r="18.5" fill="white"/>
<g filter="url(#filter0_d_75_59)">
<path d="M101.41 105.5V151H92.785L73.4413 119.438V151H64.8475V105.5H73.4413L92.8475 137.094V105.5H101.41ZM163.17 117.188V123.125H143.795V117.188H163.17ZM148.983 108.875H157.264V141.25C157.264 142.25 157.399 143.021 157.67 143.562C157.941 144.104 158.347 144.469 158.889 144.656C159.43 144.844 160.076 144.938 160.826 144.938C161.368 144.938 161.868 144.906 162.326 144.844C162.785 144.781 163.17 144.719 163.483 144.656L163.514 150.844C162.826 151.073 162.045 151.26 161.17 151.406C160.316 151.552 159.347 151.625 158.264 151.625C156.41 151.625 154.785 151.312 153.389 150.688C151.993 150.042 150.91 149.01 150.139 147.594C149.368 146.156 148.983 144.26 148.983 141.906V108.875ZM185.777 151.625C183.215 151.625 180.913 151.208 178.871 150.375C176.83 149.542 175.09 148.385 173.652 146.906C172.236 145.406 171.142 143.667 170.371 141.688C169.621 139.688 169.246 137.542 169.246 135.25V134C169.246 131.396 169.621 129.031 170.371 126.906C171.121 124.76 172.184 122.917 173.559 121.375C174.934 119.833 176.58 118.646 178.496 117.812C180.413 116.979 182.527 116.562 184.84 116.562C187.236 116.562 189.35 116.969 191.184 117.781C193.017 118.573 194.548 119.698 195.777 121.156C197.007 122.615 197.934 124.365 198.559 126.406C199.184 128.427 199.496 130.667 199.496 133.125V136.594H172.996V130.906H191.371V130.281C191.33 128.969 191.08 127.771 190.621 126.688C190.163 125.583 189.455 124.708 188.496 124.062C187.538 123.396 186.298 123.062 184.777 123.062C183.548 123.062 182.475 123.333 181.559 123.875C180.663 124.396 179.913 125.146 179.309 126.125C178.725 127.083 178.288 128.229 177.996 129.562C177.705 130.896 177.559 132.375 177.559 134V135.25C177.559 136.667 177.746 137.979 178.121 139.188C178.517 140.396 179.09 141.448 179.84 142.344C180.611 143.219 181.527 143.906 182.59 144.406C183.673 144.885 184.902 145.125 186.277 145.125C188.007 145.125 189.569 144.792 190.965 144.125C192.382 143.438 193.611 142.427 194.652 141.094L198.809 145.406C198.1 146.448 197.142 147.448 195.934 148.406C194.746 149.365 193.309 150.146 191.621 150.75C189.934 151.333 187.986 151.625 185.777 151.625ZM205.371 146.969C205.371 145.719 205.798 144.667 206.652 143.812C207.507 142.958 208.663 142.531 210.121 142.531C211.58 142.531 212.736 142.958 213.59 143.812C214.444 144.667 214.871 145.719 214.871 146.969C214.871 148.198 214.444 149.24 213.59 150.094C212.736 150.927 211.58 151.344 210.121 151.344C208.663 151.344 207.507 150.927 206.652 150.094C205.798 149.24 205.371 148.198 205.371 146.969Z" fill="white"/>
</g>
<defs>
<filter id="filter0_d_75_59" x="60.8475" y="105.5" width="158.024" height="54.125" filterUnits="userSpaceOnUse" color-interpolation-filters="sRGB">
<feFlood flood-opacity="0" result="BackgroundImageFix"/>
<feColorMatrix in="SourceAlpha" type="matrix" values="0 0 0 0 0 0 0 0 0 0 0 0 0 0 0 0 0 0 127 0" result="hardAlpha"/>
<feOffset dy="4"/>
<feGaussianBlur stdDeviation="2"/>
<feComposite in2="hardAlpha" operator="out"/>
<feColorMatrix type="matrix" values="0 0 0 0 0 0 0 0 0 0 0 0 0 0 0 0 0 0 0.25 0"/>
<feBlend mode="normal" in2="BackgroundImageFix" result="effect1_dropShadow_75_59"/>
<feBlend mode="normal" in="SourceGraphic" in2="effect1_dropShadow_75_59" result="shape"/>
</filter>
</defs>
</svg>
