<svg width="64" height="64" viewBox="0 0 64 64" fill="none" xmlns="http://www.w3.org/2000/svg">
<path d="M0.5 15C0.5 6.99187 6.99187 0.5 15 0.5H49C57.0081 0.5 63.5 6.99187 63.5 15V49C63.5 57.0081 57.0081 63.5 49 63.5H15C6.99187 63.5 0.5 57.0081 0.5 49V15Z" fill="#272848" stroke="white"/>
<path d="M19 42.875C19 41.2174 19.6585 39.6277 20.8306 38.4556C22.0027 37.2835 23.5924 36.625 25.25 36.625H37.75C39.4076 36.625 40.9973 37.2835 42.1694 38.4556C43.3415 39.6277 44 41.2174 44 42.875C44 43.7038 43.6708 44.4987 43.0847 45.0847C42.4987 45.6708 41.7038 46 40.875 46H22.125C21.2962 46 20.5013 45.6708 19.9153 45.0847C19.3292 44.4987 19 43.7038 19 42.875Z" stroke="white" stroke-width="2" stroke-linejoin="round"/>
<path d="M31.5 30.375C34.0888 30.375 36.1875 28.2763 36.1875 25.6875C36.1875 23.0987 34.0888 21 31.5 21C28.9112 21 26.8125 23.0987 26.8125 25.6875C26.8125 28.2763 28.9112 30.375 31.5 30.375Z" stroke="white" stroke-width="2"/>
</svg>
