<svg width="35" height="35" viewBox="0 0 35 35" fill="none" xmlns="http://www.w3.org/2000/svg">
<path fill-rule="evenodd" clip-rule="evenodd" d="M17.5 3.5C16.3397 3.5 15.2269 3.86875 14.4064 4.52513C13.5859 5.1815 13.125 6.07174 13.125 7H21.875C21.875 6.07174 21.4141 5.1815 20.5936 4.52513C19.7731 3.86875 18.6603 3.5 17.5 3.5ZM11.7119 1.75C13.2541 0.6615 15.2819 0 17.5 0C19.7181 0 21.7437 0.6615 23.2881 1.75H30.625C31.7853 1.75 32.8981 2.11875 33.7186 2.77513C34.5391 3.4315 35 4.32174 35 5.25V31.5C35 32.4283 34.5391 33.3185 33.7186 33.9749C32.8981 34.6312 31.7853 35 30.625 35H4.375C3.21468 35 2.10188 34.6312 1.28141 33.9749C0.460936 33.3185 0 32.4283 0 31.5V5.25C0 4.32174 0.460936 3.4315 1.28141 2.77513C2.10188 2.11875 3.21468 1.75 4.375 1.75H11.7119ZM9.02563 5.25H4.375V31.5H30.625V5.25H25.9744C26.1552 5.81117 26.2471 6.3945 26.25 7V8.75C26.25 9.21413 26.0195 9.65925 25.6093 9.98744C25.1991 10.3156 24.6427 10.5 24.0625 10.5H10.9375C10.3573 10.5 9.80094 10.3156 9.3907 9.98744C8.98047 9.65925 8.75 9.21413 8.75 8.75V7C8.75292 6.3945 8.84479 5.81117 9.02563 5.25ZM8.75 15.75C8.75 15.2859 8.98047 14.8408 9.3907 14.5126C9.80094 14.1844 10.3573 14 10.9375 14H24.0625C24.6427 14 25.1991 14.1844 25.6093 14.5126C26.0195 14.8408 26.25 15.2859 26.25 15.75C26.25 16.2141 26.0195 16.6592 25.6093 16.9874C25.1991 17.3156 24.6427 17.5 24.0625 17.5H10.9375C10.3573 17.5 9.80094 17.3156 9.3907 16.9874C8.98047 16.6592 8.75 16.2141 8.75 15.75ZM8.75 22.75C8.75 22.2859 8.98047 21.8408 9.3907 21.5126C9.80094 21.1844 10.3573 21 10.9375 21H17.5C18.0802 21 18.6366 21.1844 19.0468 21.5126C19.457 21.8408 19.6875 22.2859 19.6875 22.75C19.6875 23.2141 19.457 23.6592 19.0468 23.9874C18.6366 24.3156 18.0802 24.5 17.5 24.5H10.9375C10.3573 24.5 9.80094 24.3156 9.3907 23.9874C8.98047 23.6592 8.75 23.2141 8.75 22.75Z" fill="#272848"/>
</svg>
