<svg width="19" height="19" viewBox="0 0 19 19" fill="none" xmlns="http://www.w3.org/2000/svg">
<path d="M9 12V9H12L9 12ZM9 16.025V13.9L13.9 9H16.025L9 16.025ZM9 17.95L17.95 9H19V10.075L10.05 19H9V17.95ZM11.975 19L19 11.975V14.1L14.1 19H11.975ZM16 19L19 16V19H16ZM17.775 7H15.7C15.2667 5.53333 14.4417 4.33333 13.225 3.4C12.0083 2.46667 10.6 2 9 2C7.05 2 5.39567 2.67933 4.037 4.038C2.67833 5.39667 1.99933 7.05067 2 9C2 10.2 2.271 11.3 2.813 12.3C3.355 13.3 4.084 14.1167 5 14.75V12H7V18H1V16H3.35C2.31667 15.1667 1.5 14.146 0.9 12.938C0.3 11.73 0 10.4173 0 9C0 7.75 0.237667 6.57933 0.713 5.488C1.18833 4.39667 1.82967 3.44667 2.637 2.638C3.44433 1.82933 4.39433 1.18767 5.487 0.713C6.57967 0.238333 7.75067 0.000666667 9 0C11.15 0 13.0377 0.662667 14.663 1.988C16.2883 3.31333 17.3257 4.984 17.775 7Z" fill="#272848"/>
</svg>
