<svg width="10" height="33" viewBox="0 0 10 33" fill="none" xmlns="http://www.w3.org/2000/svg">
<path d="M4.71429 32.9999C7.31791 32.9999 9.42857 30.8892 9.42857 28.2856C9.42857 25.6819 7.31791 23.5713 4.71429 23.5713C2.11066 23.5713 0 25.6819 0 28.2856C0 30.8892 2.11066 32.9999 4.71429 32.9999Z" fill="#272848"/>
<path d="M4.71429 21.2142C7.31791 21.2142 9.42857 19.1036 9.42857 16.4999C9.42857 13.8963 7.31791 11.7856 4.71429 11.7856C2.11066 11.7856 0 13.8963 0 16.4999C0 19.1036 2.11066 21.2142 4.71429 21.2142Z" fill="#272848"/>
<path d="M4.71429 9.42857C7.31791 9.42857 9.42857 7.31791 9.42857 4.71429C9.42857 2.11066 7.31791 0 4.71429 0C2.11066 0 0 2.11066 0 4.71429C0 7.31791 2.11066 9.42857 4.71429 9.42857Z" fill="#272848"/>
</svg>
