<svg width="20" height="19" viewBox="0 0 20 19" fill="none" xmlns="http://www.w3.org/2000/svg">
<path d="M2.10526 19C1.52632 19 1.03088 18.7935 0.618947 18.3804C0.207018 17.9673 0.000701754 17.4701 0 16.8889V2.11111C0 1.53056 0.206316 1.03374 0.618947 0.620667C1.03158 0.207593 1.52702 0.000703704 2.10526 0H16.8421C17.4211 0 17.9168 0.206889 18.3295 0.620667C18.7421 1.03444 18.9481 1.53126 18.9474 2.11111H10.5263C9.2807 2.11111 8.26772 2.50272 7.48737 3.28594C6.70702 4.06917 6.31649 5.08496 6.31579 6.33333V12.6667C6.31579 13.9157 6.70632 14.9319 7.48737 15.7151C8.26842 16.4983 9.2814 16.8896 10.5263 16.8889H18.9474C18.9474 17.4694 18.7414 17.9666 18.3295 18.3804C17.9175 18.7942 17.4218 19.0007 16.8421 19H2.10526ZM10.5263 14.7778C9.94737 14.7778 9.45193 14.5712 9.04 14.1582C8.62807 13.7451 8.42175 13.2479 8.42105 12.6667V6.33333C8.42105 5.75278 8.62737 5.25596 9.04 4.84289C9.45263 4.42981 9.94807 4.22293 10.5263 4.22222H17.8947C18.4737 4.22222 18.9695 4.42911 19.3821 4.84289C19.7947 5.25667 20.0007 5.75348 20 6.33333V12.6667C20 13.2472 19.794 13.7444 19.3821 14.1582C18.9702 14.5719 18.4744 14.7785 17.8947 14.7778H10.5263ZM13.6842 11.0833C14.1403 11.0833 14.5175 10.9338 14.8158 10.6347C15.114 10.3356 15.2632 9.95741 15.2632 9.5C15.2632 9.04259 15.114 8.66435 14.8158 8.36528C14.5175 8.0662 14.1403 7.91667 13.6842 7.91667C13.2281 7.91667 12.8509 8.0662 12.5526 8.36528C12.2544 8.66435 12.1053 9.04259 12.1053 9.5C12.1053 9.95741 12.2544 10.3356 12.5526 10.6347C12.8509 10.9338 13.2281 11.0833 13.6842 11.0833Z" fill="#272848"/>
</svg>
